<svg width="2761" height="2721" viewBox="0 0 2761 2721" fill="none" xmlns="http://www.w3.org/2000/svg">
<path d="M863.375 283.929C578.993 440.886 345.724 570.031 344.563 571.241C341.775 574.143 -1.3898 1674.78 0.00423573 1676.96C1.16593 1678.89 1378.01 2720.27 1380.79 2721C1382.42 2721.48 2754.38 1684.94 2760.89 1678.41C2763.21 1675.99 2730.68 1569.82 2591.74 1124.1C2493 808.007 2418.19 571.724 2416.1 570.031C2411.91 566.887 1388.93 1.9378 1383.58 0.00304594C1381.49 -0.722489 1156.82 121.893 863.375 283.929ZM1842.92 419.12L2302.48 673.057L2450.25 1146.59C2531.57 1407.06 2598.02 1620.36 2597.78 1620.61C2595.23 1623.99 1381.96 2540.1 1380.79 2539.62C1379.4 2539.13 178.44 1631.49 167.288 1622.54C164.732 1620.61 195.633 1519.51 312.035 1146.59L460.035 673.057L918.904 419.362C1171.22 280.059 1378.93 165.667 1380.56 165.667C1381.96 165.425 1590.13 279.576 1842.92 419.12Z" fill="white"/>
<path d="M1162.86 454.187L1003.71 542.219L1002.55 968.833L1001.38 1395.21L996.273 1413.83C979.312 1476.22 958.169 1502.58 908.914 1523.14C863.607 1542.01 823.413 1534.27 790.885 1500.65C764.166 1472.84 746.741 1427.13 743.256 1376.34L741.63 1354.09L794.371 1185.53L846.879 1016.96V823.485C846.879 716.831 846.414 629.767 845.95 629.767C843.859 629.767 589.912 770.762 587.589 773.181C585.498 775.357 464.449 1160.62 350.836 1526.29L338.754 1565.46L829.918 1936.94C1100.13 2141.54 1321.55 2308.17 1322.24 2307.69C1322.71 2306.96 1322.94 1869.95 1322.71 1336.44L1322.01 366.398L1162.86 454.187Z" fill="white"/>
<path d="M1450.96 678.136V990.116H1567.13H1683.3V1271.87V1553.61H1567.13H1450.96V1931.13C1450.96 2170.56 1451.89 2308.17 1453.28 2307.69C1454.45 2307.2 1676.1 2140.09 1945.84 1935.97C2295.98 1671.15 2436.08 1564.01 2435.15 1561.6C2434.45 1559.66 2433.75 1557 2433.75 1555.79C2433.75 1554.58 2347.79 1553.61 2218.84 1553.61H2003.93V1271.87V990.116H2129.39C2218.14 990.116 2254.85 989.39 2254.85 987.456C2254.85 981.893 2189.33 775.841 2186.78 773.181C2184.69 771.004 1506.95 395.903 1462.11 371.96L1450.96 366.156V678.136Z" fill="white"/>
</svg>
